<?xml version="1.0" encoding="UTF-8"?>
<!-- Generated by IcoMoon.io -->
<!DOCTYPE svg PUBLIC "-//W3C//DTD SVG 1.1//EN" "http://www.w3.org/Graphics/SVG/1.1/DTD/svg11.dtd">
<svg version="1.1" xmlns="http://www.w3.org/2000/svg" xmlns:xlink="http://www.w3.org/1999/xlink" width="115" height="146" viewBox="0 0 115 146">
<g id="icomoon-ignore">
	<line stroke-width="1" x1="" y1="" x2="" y2="" stroke="#449FDB" opacity=""/>
</g>
	<path d="M0 109.5q0-6.518 4.563-11.080t11.080-4.563 11.080 4.563 4.563 11.080-4.563 11.080-11.080 4.563-11.080-4.563-4.563-11.080zM0 68.356v-10.999q0-2.363 1.711-3.829 1.385-1.385 3.503-1.385h0.407q13.036 1.059 24.931 6.559t21.102 14.787q9.288 9.206 14.787 21.102t6.559 24.931q0.163 2.281-1.385 3.911-1.467 1.711-3.829 1.711h-10.999q-2.037 0-3.503-1.344t-1.63-3.381q-1.792-18.657-15.032-31.897t-31.897-15.032q-2.037-0.163-3.381-1.63t-1.344-3.503zM0 27.294v-11.651q0-2.281 1.63-3.748 1.467-1.467 3.585-1.467h0.244q21.346 1.059 40.859 9.777t34.667 23.953q15.235 15.154 23.953 34.667t9.777 40.859q0.163 2.2-1.467 3.829-1.467 1.63-3.748 1.63h-11.651q-2.118 0-3.626-1.426t-1.589-3.463q-0.978-17.517-8.229-33.282t-18.861-27.375-27.375-18.861-33.282-8.31q-2.037-0.081-3.463-1.589t-1.426-3.544z" fill="#000000"/>
</svg>